<svg xmlns="http://www.w3.org/2000/svg" width="128" height="128" fill="none"><path fill="#000" fill-rule="evenodd" d="M27.238 42.187c1.916-.25 3.858-.25 5.775 0 .845.11 1.44.88 1.33 1.721a1.542 1.542 0 0 1-1.731 1.323 19.272 19.272 0 0 0-4.973 0 1.542 1.542 0 0 1-1.731-1.323 1.537 1.537 0 0 1 1.33-1.721Zm-8.419 4.638a1.53 1.53 0 0 1-.282 2.153 19.183 19.183 0 0 0-3.52 3.499 1.55 1.55 0 0 1-2.164.28 1.53 1.53 0 0 1-.282-2.152 22.246 22.246 0 0 1 4.084-4.06 1.55 1.55 0 0 1 2.164.28Zm22.612 0a1.55 1.55 0 0 1 2.165-.28 22.287 22.287 0 0 1 4.084 4.06 1.53 1.53 0 0 1-.283 2.153 1.55 1.55 0 0 1-2.164-.28 19.171 19.171 0 0 0-3.52-3.5 1.53 1.53 0 0 1-.282-2.153ZM9.92 59.806c.845.11 1.44.881 1.33 1.722a18.942 18.942 0 0 0 0 4.944c.11.84-.485 1.611-1.33 1.721a1.542 1.542 0 0 1-1.73-1.322 21.997 21.997 0 0 1 0-5.742c.11-.84.885-1.433 1.73-1.323Zm2.934 15.436a1.55 1.55 0 0 1 2.164.28 19.17 19.17 0 0 0 3.52 3.5 1.53 1.53 0 0 1 .282 2.152 1.55 1.55 0 0 1-2.165.281 22.276 22.276 0 0 1-4.084-4.06 1.53 1.53 0 0 1 .283-2.153Zm34.544 0a1.53 1.53 0 0 1 .283 2.153 22.234 22.234 0 0 1-4.084 4.06 1.55 1.55 0 0 1-2.165-.28 1.53 1.53 0 0 1 .282-2.153 19.196 19.196 0 0 0 3.52-3.499 1.55 1.55 0 0 1 2.164-.28Zm-21.49 8.85a1.543 1.543 0 0 1 1.732-1.323c1.65.215 3.322.215 4.972 0 .846-.11 1.62.482 1.731 1.323.11.84-.485 1.61-1.33 1.72a22.37 22.37 0 0 1-5.774 0 1.537 1.537 0 0 1-1.33-1.72Z" clip-rule="evenodd"/><path fill="#000" fill-rule="evenodd" d="M72.424 47.63c-9.068-5.249-20.632-2.167-25.835 6.868-5.205 9.037-2.084 20.623 6.986 25.872 9.069 5.249 20.633 2.167 25.836-6.868 5.205-9.037 2.084-20.623-6.987-25.872Zm-28.496 5.336c6.056-10.515 19.506-14.087 30.034-7.993 10.526 6.092 14.164 19.548 8.11 30.061-6.056 10.515-19.506 14.087-30.034 7.993-10.526-6.092-14.164-19.548-8.11-30.061Z" clip-rule="evenodd"/><path fill="#000" fill-rule="evenodd" d="M107.958 44.974c-10.533-6.096-23.978-2.52-30.03 7.988-6.052 10.508-2.42 23.968 8.114 30.064 10.533 6.097 23.978 2.52 30.03-7.988 6.052-10.508 2.419-23.968-8.114-30.064Z" clip-rule="evenodd"/></svg>